<svg width="109" height="103" viewBox="0 0 109 103" fill="none" xmlns="http://www.w3.org/2000/svg">
<rect x="18" y="47" width="69" height="56" rx="5" fill="#52566B"/>
<path d="M107.496 52.0387L59.0065 2.03869C56.617 -0.679561 52.383 -0.679566 49.9936 2.03869L1.50382 52.0387C-1.90383 55.9153 0.848855 62 6.01026 62H102.99C108.151 62 110.904 55.9153 107.496 52.0387Z" fill="#52566B"/>
<rect x="19" y="43" width="65" height="57" rx="5" fill="#FFE0C2"/>
<path d="M102.54 50.0887L59.5499 5.08868C57.1559 2.30377 52.8442 2.30377 50.4501 5.08868L7.4603 50.0887C4.116 53.979 6.88001 60 12.0102 60H97.9898C103.12 60 105.884 53.979 102.54 50.0887Z" fill="#FFE0C2"/>
</svg>
