<svg xmlns="http://www.w3.org/2000/svg" xmlns:xlink="http://www.w3.org/1999/xlink" width="1080" zoomAndPan="magnify" viewBox="0 0 810 809.999993" height="1080" preserveAspectRatio="xMidYMid meet" version="1.2"><defs><clipPath id="15f44c0daa"><path d="M 600 615 L 689 615 L 689 720 L 600 720 Z M 600 615 "/></clipPath><clipPath id="457460eb65"><path d="M 578.578125 646.171875 L 626.410156 615.171875 L 688.414062 710.832031 L 640.582031 741.835938 Z M 578.578125 646.171875 "/></clipPath><clipPath id="5aeac30ecd"><path d="M 578.578125 646.171875 L 626.410156 615.171875 L 688.414062 710.832031 L 640.582031 741.835938 Z M 578.578125 646.171875 "/></clipPath><clipPath id="8085da3a51"><path d="M 578.578125 646.171875 L 626.410156 615.171875 L 688.414062 710.832031 L 640.582031 741.835938 Z M 578.578125 646.171875 "/></clipPath><clipPath id="01b5c40621"><path d="M 32.566406 27.21875 L 787.816406 27.21875 L 787.816406 782.46875 L 32.566406 782.46875 Z M 32.566406 27.21875 "/></clipPath><clipPath id="45034fff9a"><path d="M 3.851562 3.851562 L 806.351562 3.851562 L 806.351562 806.351562 L 3.851562 806.351562 Z M 3.851562 3.851562 "/></clipPath><clipPath id="57a8a97258"><path d="M 204.375 334.171875 L 220 334.171875 L 220 457 L 204.375 457 Z M 204.375 334.171875 "/></clipPath><clipPath id="c5731918b7"><path d="M 599.03125 334.171875 L 616.125 334.171875 L 616.125 464.894531 L 599.03125 464.894531 Z M 599.03125 334.171875 "/></clipPath><clipPath id="624edafa22"><path d="M 208.628906 349.261719 L 611.910156 349.261719 L 611.910156 686.671875 L 208.628906 686.671875 Z M 208.628906 349.261719 "/></clipPath><clipPath id="1d2ab5eb49"><path d="M 230 225.679688 L 265.027344 225.679688 L 265.027344 308 L 230 308 Z M 230 225.679688 "/></clipPath><clipPath id="8a4975ce14"><path d="M 249.597656 345 L 265.027344 345 L 265.027344 448.429688 L 249.597656 448.429688 Z M 249.597656 345 "/></clipPath><clipPath id="4ef708ab4a"><path d="M 229.757812 241 L 260 241 L 260 310.742188 L 229.757812 310.742188 Z M 229.757812 241 "/></clipPath><clipPath id="0be744794f"><path d="M 610.226562 248.347656 L 660.234375 248.347656 L 660.234375 338.664062 L 610.226562 338.664062 Z M 610.226562 248.347656 "/></clipPath><clipPath id="67640b10e0"><path d="M 578.574219 265.71875 L 614 265.71875 L 614 344 L 578.574219 344 Z M 578.574219 265.71875 "/></clipPath><clipPath id="318960563e"><path d="M 582.355469 272.105469 L 784.074219 272.105469 L 784.074219 477.296875 L 582.355469 477.296875 Z M 582.355469 272.105469 "/></clipPath><clipPath id="d14c3c15ca"><path d="M 578.574219 377.300781 L 593.492188 377.300781 L 593.492188 482.46875 L 578.574219 482.46875 Z M 578.574219 377.300781 "/></clipPath><clipPath id="9ba42a3d20"><path d="M 633.441406 661.46875 L 765.210938 661.46875 L 765.210938 793.238281 L 633.441406 793.238281 Z M 633.441406 661.46875 "/></clipPath><clipPath id="4040fa05e0"><path d="M 699.328125 661.46875 C 662.941406 661.46875 633.441406 690.964844 633.441406 727.351562 C 633.441406 763.742188 662.941406 793.238281 699.328125 793.238281 C 735.714844 793.238281 765.210938 763.742188 765.210938 727.351562 C 765.210938 690.964844 735.714844 661.46875 699.328125 661.46875 Z M 699.328125 661.46875 "/></clipPath><clipPath id="8bf1669441"><path d="M 624 606 L 715 606 L 715 706 L 624 706 Z M 624 606 "/></clipPath><clipPath id="3c17a6fa4e"><path d="M 736.8125 671.351562 L 693.304688 705.804688 L 624.394531 618.785156 L 667.90625 584.332031 Z M 736.8125 671.351562 "/></clipPath><clipPath id="9ea874c6cc"><path d="M 736.8125 671.351562 L 693.304688 705.804688 L 624.394531 618.785156 L 667.90625 584.332031 Z M 736.8125 671.351562 "/></clipPath><clipPath id="09103c924e"><path d="M 736.8125 671.351562 L 693.304688 705.804688 L 624.394531 618.785156 L 667.90625 584.332031 Z M 736.8125 671.351562 "/></clipPath></defs><g id="ede467765f"><g clip-rule="nonzero" clip-path="url(#15f44c0daa)"><g clip-rule="nonzero" clip-path="url(#457460eb65)"><g clip-rule="nonzero" clip-path="url(#5aeac30ecd)"><g clip-rule="nonzero" clip-path="url(#8085da3a51)"><path style=" stroke:none;fill-rule:nonzero;fill:#16e8f5;fill-opacity:1;" d="M 677.296875 693.707031 C 660.304688 704.609375 637.707031 699.777344 626.746094 682.863281 C 615.78125 665.949219 620.597656 643.34375 637.488281 632.285156 L 626.390625 615.171875 C 600.027344 632.371094 592.492188 667.617188 609.582031 693.984375 C 626.671875 720.351562 661.921875 727.867188 688.390625 710.824219 L 677.296875 693.707031 "/></g></g></g></g><g clip-rule="nonzero" clip-path="url(#01b5c40621)"><path style=" stroke:none;fill-rule:nonzero;fill:#ff8a3d;fill-opacity:1;" d="M 410.191406 27.21875 C 444.855469 27.21875 478.292969 31.644531 510.5 40.496094 C 542.707031 49.347656 572.820312 62.007812 600.847656 78.480469 C 628.875 94.953125 654.320312 114.621094 677.183594 137.484375 C 700.050781 160.347656 719.71875 185.914062 736.1875 214.1875 C 752.660156 242.460938 765.320312 272.578125 774.171875 304.539062 C 783.023438 336.5 787.570312 369.933594 787.816406 404.84375 C 787.816406 439.507812 783.390625 472.945312 774.542969 505.152344 C 765.691406 537.359375 753.03125 567.472656 736.558594 595.5 C 720.085938 623.527344 700.417969 648.972656 677.554688 671.835938 C 654.691406 694.703125 629.121094 714.371094 600.847656 730.839844 C 572.574219 747.3125 542.460938 759.972656 510.5 768.824219 C 478.539062 777.675781 445.101562 782.222656 410.191406 782.46875 C 375.527344 782.46875 342.09375 778.042969 309.886719 769.195312 C 277.679688 760.34375 247.5625 747.683594 219.535156 731.210938 C 191.507812 714.738281 166.0625 695.070312 143.199219 672.207031 C 120.335938 649.34375 100.667969 623.773438 84.195312 595.5 C 67.722656 567.226562 55.0625 537.234375 46.210938 505.519531 C 37.359375 473.804688 32.8125 440.246094 32.566406 404.84375 C 32.566406 370.179688 36.992188 336.746094 45.84375 304.539062 C 54.695312 272.332031 67.355469 242.214844 83.828125 214.1875 C 100.296875 186.160156 119.964844 160.714844 142.832031 137.851562 C 165.695312 114.988281 191.261719 95.320312 219.535156 78.847656 C 247.808594 62.375 277.800781 49.714844 309.515625 40.863281 C 341.230469 32.015625 374.789062 27.464844 410.191406 27.21875 Z M 410.191406 735.265625 C 440.433594 735.265625 469.566406 731.332031 497.589844 723.464844 C 525.617188 715.597656 551.925781 704.535156 576.507812 690.277344 C 601.09375 676.015625 623.464844 658.683594 643.625 638.277344 C 663.785156 617.875 680.996094 595.625 695.253906 571.53125 C 709.515625 547.4375 720.699219 521.132812 728.8125 492.613281 C 736.925781 464.09375 740.859375 434.839844 740.613281 404.84375 C 740.613281 374.605469 736.679688 345.472656 728.8125 317.445312 C 720.945312 289.417969 709.882812 263.113281 695.625 238.527344 C 681.363281 213.941406 664.03125 191.570312 643.625 171.410156 C 623.222656 151.25 600.972656 134.042969 576.878906 119.78125 C 552.785156 105.523438 526.480469 94.335938 497.960938 86.222656 C 469.441406 78.109375 440.1875 74.175781 410.191406 74.421875 C 379.953125 74.421875 350.820312 78.355469 322.792969 86.222656 C 294.765625 94.089844 268.460938 105.152344 243.875 119.414062 C 219.289062 133.671875 196.917969 151.003906 176.757812 171.410156 C 156.597656 191.816406 139.390625 214.066406 125.128906 238.160156 C 110.871094 262.253906 99.683594 288.558594 91.570312 317.078125 C 83.457031 345.59375 79.523438 374.851562 79.769531 404.84375 C 79.769531 435.085938 83.703125 464.21875 91.570312 492.246094 C 99.4375 520.269531 110.5 546.578125 124.761719 571.160156 C 139.019531 595.746094 156.351562 618.121094 176.757812 638.277344 C 197.164062 658.4375 219.414062 675.648438 243.507812 689.90625 C 267.597656 704.167969 293.90625 715.351562 322.425781 723.464844 C 350.941406 731.578125 380.199219 735.511719 410.191406 735.265625 Z M 410.191406 735.265625 "/></g><g clip-rule="nonzero" clip-path="url(#45034fff9a)"><path style=" stroke:none;fill-rule:nonzero;fill:#ddfcad;fill-opacity:1;" d="M 404.996094 3.851562 C 441.820312 3.851562 477.339844 8.554688 511.550781 17.957031 C 545.761719 27.359375 577.757812 40.808594 607.527344 58.304688 C 637.300781 75.804688 664.332031 96.695312 688.617188 120.984375 C 712.90625 145.273438 733.800781 172.433594 751.296875 202.464844 C 768.796875 232.5 782.246094 264.492188 791.648438 298.445312 C 801.050781 332.394531 805.878906 367.914062 806.140625 404.996094 C 806.140625 441.820312 801.441406 477.339844 792.039062 511.550781 C 782.636719 545.761719 769.1875 577.757812 751.691406 607.527344 C 734.191406 637.300781 713.300781 664.332031 689.011719 688.617188 C 664.722656 712.90625 637.5625 733.800781 607.527344 751.296875 C 577.496094 768.796875 545.503906 782.246094 511.550781 791.648438 C 477.601562 801.050781 442.082031 805.878906 404.996094 806.140625 C 368.171875 806.140625 332.65625 801.441406 298.445312 792.039062 C 264.230469 782.636719 232.238281 769.1875 202.464844 751.691406 C 172.695312 734.191406 145.664062 713.300781 121.375 689.011719 C 97.085938 664.722656 76.195312 637.5625 58.695312 607.527344 C 41.199219 577.496094 27.75 545.632812 18.347656 511.941406 C 8.945312 478.253906 4.113281 442.605469 3.851562 404.996094 C 3.851562 368.171875 8.554688 332.65625 17.957031 298.445312 C 27.355469 264.230469 40.808594 232.238281 58.304688 202.464844 C 75.804688 172.695312 96.695312 145.664062 120.984375 121.375 C 145.273438 97.085938 172.433594 76.195312 202.464844 58.695312 C 232.5 41.199219 264.363281 27.75 298.050781 18.347656 C 331.742188 8.945312 367.390625 4.113281 404.996094 3.851562 Z M 404.996094 756 C 437.121094 756 468.066406 751.820312 497.839844 743.464844 C 527.613281 735.105469 555.558594 723.355469 581.671875 708.207031 C 607.789062 693.058594 631.554688 674.648438 652.96875 652.96875 C 674.386719 631.292969 692.667969 607.660156 707.816406 582.066406 C 722.960938 556.472656 734.84375 528.527344 743.464844 498.230469 C 752.082031 467.9375 756.261719 436.859375 756 404.996094 C 756 372.875 751.820312 341.925781 743.464844 312.15625 C 735.105469 282.382812 723.355469 254.4375 708.207031 228.320312 C 693.058594 202.207031 674.648438 178.441406 652.96875 157.023438 C 631.292969 135.609375 607.660156 117.328125 582.066406 102.179688 C 556.472656 87.03125 528.527344 75.148438 498.230469 66.53125 C 467.9375 57.914062 436.859375 53.734375 404.996094 53.996094 C 372.875 53.996094 341.925781 58.175781 312.15625 66.53125 C 282.382812 74.890625 254.4375 86.640625 228.320312 101.789062 C 202.207031 116.9375 178.441406 135.347656 157.023438 157.023438 C 135.609375 178.699219 117.328125 202.335938 102.179688 227.929688 C 87.03125 253.523438 75.148438 281.46875 66.53125 311.761719 C 57.914062 342.058594 53.734375 373.136719 53.996094 404.996094 C 53.996094 437.121094 58.175781 468.066406 66.53125 497.839844 C 74.890625 527.613281 86.640625 555.558594 101.789062 581.671875 C 116.9375 607.789062 135.347656 631.554688 157.023438 652.96875 C 178.699219 674.386719 202.335938 692.667969 227.929688 707.816406 C 253.523438 722.960938 281.46875 734.84375 311.761719 743.464844 C 342.058594 752.082031 373.136719 756.261719 404.996094 756 Z M 404.996094 756 "/></g><g clip-rule="nonzero" clip-path="url(#57a8a97258)"><path style=" stroke:none;fill-rule:evenodd;fill:#9b91d0;fill-opacity:1;" d="M 214.546875 392.699219 C 154.539062 523.691406 -28.328125 431.152344 -7.882812 301.339844 C 13.644531 164.613281 258.183594 234.316406 214.546875 392.699219 "/></g><g clip-rule="nonzero" clip-path="url(#c5731918b7)"><path style=" stroke:none;fill-rule:evenodd;fill:#9b91d0;fill-opacity:1;" d="M 711.035156 229.855469 C 750.503906 222.210938 799.84375 236.238281 818.265625 269.5625 C 869.078125 361.523438 775.421875 473.910156 683.222656 464.179688 C 632.585938 458.867188 603.335938 415.761719 599.8125 376.8125 C 592.28125 293.386719 651.816406 241.316406 711.035156 229.855469 "/></g><g clip-rule="nonzero" clip-path="url(#624edafa22)"><path style=" stroke:none;fill-rule:evenodd;fill:#9b91d0;fill-opacity:1;" d="M 369.441406 352.972656 C 508.609375 328.972656 636.371094 429.257812 607.761719 599.226562 C 601.832031 634.414062 571.542969 684.15625 528.3125 686.613281 C 493.417969 688.601562 452.609375 654.632812 409.167969 654.839844 C 355.21875 655.101562 312.699219 702.9375 262.195312 678.679688 C 219.785156 658.28125 202.636719 575.828125 210.574219 515.832031 C 221.984375 429.335938 285.582031 367.4375 369.441406 352.972656 "/></g><g clip-rule="nonzero" clip-path="url(#1d2ab5eb49)"><path style=" stroke:none;fill-rule:evenodd;fill:#7a5980;fill-opacity:1;" d="M 306.925781 78.207031 C 449.695312 58.1875 461.234375 313.875 329.125 307.6875 C 222.914062 302.714844 182.839844 95.601562 306.925781 78.207031 "/></g><path style=" stroke:none;fill-rule:evenodd;fill:#7a5980;fill-opacity:1;" d="M 255.113281 385.417969 C 199.191406 507.484375 28.78125 421.246094 47.835938 300.277344 C 67.894531 172.867188 295.777344 237.820312 255.113281 385.417969 "/><g clip-rule="nonzero" clip-path="url(#8a4975ce14)"><path style=" stroke:none;fill-rule:evenodd;fill:#7a5980;fill-opacity:1;" d="M 399.457031 348.394531 C 529.144531 326.027344 648.203125 419.484375 621.542969 577.875 C 616.015625 610.664062 587.792969 657.019531 547.503906 659.308594 C 514.988281 661.164062 476.960938 629.503906 436.476562 629.699219 C 386.203125 629.941406 346.578125 674.519531 299.515625 651.914062 C 259.996094 632.90625 244.015625 556.066406 251.410156 500.160156 C 262.042969 419.554688 321.308594 361.871094 399.457031 348.394531 "/></g><path style=" stroke:none;fill-rule:evenodd;fill:#7a5980;fill-opacity:1;" d="M 301.144531 105.949219 C 426.472656 88.375 436.601562 312.824219 320.632812 307.390625 C 227.398438 303.027344 192.21875 121.214844 301.144531 105.949219 "/><g clip-rule="nonzero" clip-path="url(#4ef708ab4a)"><path style=" stroke:none;fill-rule:evenodd;fill:#7a5980;fill-opacity:1;" d="M 255.664062 375.621094 C 206.574219 482.773438 56.984375 407.074219 73.710938 300.886719 C 91.320312 189.042969 291.359375 246.0625 255.664062 375.621094 "/></g><path style=" stroke:none;fill-rule:evenodd;fill:#7a5980;fill-opacity:1;" d="M 524.125 76.851562 C 699.953125 38.46875 679.425781 350.824219 515.855469 333.445312 C 386.386719 319.6875 411.613281 101.402344 524.125 76.851562 "/><g clip-rule="nonzero" clip-path="url(#0be744794f)"><path style=" stroke:none;fill-rule:evenodd;fill:#7a5980;fill-opacity:1;" d="M 726.933594 250.675781 C 768.058594 242.710938 819.472656 257.328125 838.667969 292.050781 C 891.613281 387.875 794.027344 504.980469 697.953125 494.84375 C 645.1875 489.304688 614.710938 444.390625 611.039062 403.804688 C 603.191406 316.875 665.230469 262.617188 726.933594 250.675781 "/></g><g clip-rule="nonzero" clip-path="url(#67640b10e0)"><path style=" stroke:none;fill-rule:evenodd;fill:#7a5980;fill-opacity:1;" d="M 510.898438 129.777344 C 656.824219 97.921875 639.785156 357.15625 504.035156 342.734375 C 396.585938 331.3125 417.519531 150.152344 510.898438 129.777344 "/></g><g clip-rule="nonzero" clip-path="url(#318960563e)"><path style=" stroke:none;fill-rule:evenodd;fill:#7a5980;fill-opacity:1;" d="M 679.214844 274.039062 C 713.347656 267.429688 756.015625 279.558594 771.945312 308.378906 C 815.886719 387.902344 734.898438 485.09375 655.160156 476.679688 C 611.371094 472.085938 586.078125 434.808594 583.03125 401.125 C 576.515625 328.976562 628.003906 283.949219 679.214844 274.039062 "/></g><g clip-rule="nonzero" clip-path="url(#d14c3c15ca)"><path style=" stroke:none;fill-rule:evenodd;fill:#7a5980;fill-opacity:1;" d="M 383.8125 380.507812 C 504.160156 359.753906 614.644531 446.476562 589.90625 593.464844 C 584.777344 623.894531 558.585938 666.910156 521.199219 669.035156 C 491.023438 670.753906 455.734375 641.378906 418.167969 641.558594 C 371.511719 641.785156 334.742188 683.152344 291.066406 662.175781 C 254.390625 644.535156 239.5625 573.230469 246.425781 521.347656 C 256.292969 446.546875 311.289062 393.015625 383.8125 380.507812 "/></g><g clip-rule="nonzero" clip-path="url(#9ba42a3d20)"><g clip-rule="nonzero" clip-path="url(#4040fa05e0)"><path style=" stroke:none;fill-rule:nonzero;fill:#ff8a3d;fill-opacity:1;" d="M 633.441406 661.46875 L 765.210938 661.46875 L 765.210938 793.238281 L 633.441406 793.238281 Z M 633.441406 661.46875 "/></g></g><g clip-rule="nonzero" clip-path="url(#8bf1669441)"><g clip-rule="nonzero" clip-path="url(#3c17a6fa4e)"><g clip-rule="nonzero" clip-path="url(#9ea874c6cc)"><g clip-rule="nonzero" clip-path="url(#09103c924e)"><path style=" stroke:none;fill-rule:nonzero;fill:#16e8f5;fill-opacity:1;" d="M 636.746094 634.363281 C 652.214844 622.230469 674.5625 624.835938 686.746094 640.222656 C 698.929688 655.609375 696.34375 677.960938 680.992188 690.234375 L 693.320312 705.804688 C 717.292969 686.703125 721.347656 651.847656 702.355469 627.859375 C 683.363281 603.875 648.503906 599.835938 624.417969 618.792969 L 636.746094 634.363281 "/></g></g></g></g></g></svg>