<svg xmlns="http://www.w3.org/2000/svg" xmlns:xlink="http://www.w3.org/1999/xlink" width="192" zoomAndPan="magnify" viewBox="0 0 144 215.999996" height="288" preserveAspectRatio="xMidYMid meet" version="1.2"><defs><clipPath id="cd254ab80e"><path d="M 103 134 L 118 134 L 118 152 L 103 152 Z M 103 134 "/></clipPath><clipPath id="46bf1d32e7"><path d="M 99.820312 139.664062 L 107.371094 134.769531 L 117.164062 149.871094 L 109.609375 154.769531 Z M 99.820312 139.664062 "/></clipPath><clipPath id="450c85c650"><path d="M 99.820312 139.664062 L 107.371094 134.769531 L 117.164062 149.871094 L 109.609375 154.769531 Z M 99.820312 139.664062 "/></clipPath><clipPath id="d8566e2eb4"><path d="M 99.820312 139.664062 L 107.371094 134.769531 L 117.164062 149.871094 L 109.609375 154.769531 Z M 99.820312 139.664062 "/></clipPath><clipPath id="b217981115"><path d="M 12.308594 40.460938 L 133.058594 40.460938 L 133.058594 161.210938 L 12.308594 161.210938 Z M 12.308594 40.460938 "/></clipPath><clipPath id="d38e25eeb5"><path d="M 7.707031 36.71875 L 135.957031 36.71875 L 135.957031 164.96875 L 7.707031 164.96875 Z M 7.707031 36.71875 "/></clipPath><clipPath id="ac2cfead15"><path d="M 39.84375 89.660156 L 43 89.660156 L 43 110 L 39.84375 110 Z M 39.84375 89.660156 "/></clipPath><clipPath id="05236ed969"><path d="M 102.957031 89.660156 L 105.84375 89.660156 L 105.84375 110.511719 L 102.957031 110.511719 Z M 102.957031 89.660156 "/></clipPath><clipPath id="5a22a2cc6f"><path d="M 40.472656 92.003906 L 105.019531 92.003906 L 105.019531 145.910156 L 40.472656 145.910156 Z M 40.472656 92.003906 "/></clipPath><clipPath id="2d0d8b83f8"><path d="M 43 72.269531 L 49.949219 72.269531 L 49.949219 86 L 43 86 Z M 43 72.269531 "/></clipPath><clipPath id="120a694241"><path d="M 47.105469 91.398438 L 49.949219 91.398438 L 49.949219 108.269531 L 47.105469 108.269531 Z M 47.105469 91.398438 "/></clipPath><clipPath id="5bda64cce7"><path d="M 44 52 L 71.664062 52 L 71.664062 86 L 44 86 Z M 44 52 "/></clipPath><clipPath id="67ed73e43b"><path d="M 43.914062 74 L 49 74 L 49 86.144531 L 43.914062 86.144531 Z M 43.914062 74 "/></clipPath><clipPath id="5e3f7bfa18"><path d="M 75 47.464844 L 111 47.464844 L 111 90 L 75 90 Z M 75 47.464844 "/></clipPath><clipPath id="73fca5bbb3"><path d="M 104.796875 75.871094 L 113.171875 75.871094 L 113.171875 90.214844 L 104.796875 90.214844 Z M 104.796875 75.871094 "/></clipPath><clipPath id="0592d26ee4"><path d="M 99.820312 78.6875 L 106 78.6875 L 106 92 L 99.820312 92 Z M 99.820312 78.6875 "/></clipPath><clipPath id="20a96d0c3c"><path d="M 100.34375 79.6875 L 132.6875 79.6875 L 132.6875 112.542969 L 100.34375 112.542969 Z M 100.34375 79.6875 "/></clipPath><clipPath id="cded55e0b1"><path d="M 99.820312 96.53125 L 102.128906 96.53125 L 102.128906 113.1875 L 99.820312 113.1875 Z M 99.820312 96.53125 "/></clipPath><clipPath id="e28a4d67f8"><path d="M 108.613281 141.882812 L 129.734375 141.882812 L 129.734375 163 L 108.613281 163 Z M 108.613281 141.882812 "/></clipPath><clipPath id="a4b3d750bc"><path d="M 119.171875 141.882812 C 113.339844 141.882812 108.613281 146.609375 108.613281 152.441406 C 108.613281 158.273438 113.339844 163 119.171875 163 C 125.003906 163 129.734375 158.273438 129.734375 152.441406 C 129.734375 146.609375 125.003906 141.882812 119.171875 141.882812 Z M 119.171875 141.882812 "/></clipPath><clipPath id="7640f092ad"><path d="M 106 133 L 122 133 L 122 150 L 106 150 Z M 106 133 "/></clipPath><clipPath id="89f2d2cfa9"><path d="M 125.179688 143.703125 L 118.125 149.289062 L 106.949219 135.175781 L 114.007812 129.589844 Z M 125.179688 143.703125 "/></clipPath><clipPath id="67a61b4725"><path d="M 125.179688 143.703125 L 118.125 149.289062 L 106.949219 135.175781 L 114.007812 129.589844 Z M 125.179688 143.703125 "/></clipPath><clipPath id="5a391fae63"><path d="M 125.179688 143.703125 L 118.125 149.289062 L 106.949219 135.175781 L 114.007812 129.589844 Z M 125.179688 143.703125 "/></clipPath></defs><g id="614d2c6c4b"><g clip-rule="nonzero" clip-path="url(#cd254ab80e)"><g clip-rule="nonzero" clip-path="url(#46bf1d32e7)"><g clip-rule="nonzero" clip-path="url(#450c85c650)"><g clip-rule="nonzero" clip-path="url(#d8566e2eb4)"><path style=" stroke:none;fill-rule:nonzero;fill:#16e8f5;fill-opacity:1;" d="M 115.410156 147.167969 C 112.726562 148.890625 109.15625 148.128906 107.425781 145.457031 C 105.695312 142.785156 106.457031 139.214844 109.125 137.46875 L 107.371094 134.765625 C 103.207031 137.484375 102.015625 143.050781 104.714844 147.214844 C 107.414062 151.378906 112.980469 152.5625 117.160156 149.871094 L 115.410156 147.167969 "/></g></g></g></g><g clip-rule="nonzero" clip-path="url(#b217981115)"><path style=" stroke:none;fill-rule:nonzero;fill:#ff8a3d;fill-opacity:1;" d="M 72.683594 40.460938 C 78.226562 40.460938 83.570312 41.167969 88.71875 42.585938 C 93.871094 44 98.683594 46.023438 103.164062 48.65625 C 107.644531 51.292969 111.714844 54.4375 115.371094 58.089844 C 119.027344 61.746094 122.171875 65.835938 124.804688 70.355469 C 127.4375 74.875 129.460938 79.691406 130.875 84.800781 C 132.292969 89.910156 133.019531 95.253906 133.058594 100.835938 C 133.058594 106.378906 132.351562 111.726562 130.933594 116.875 C 129.519531 122.023438 127.496094 126.839844 124.863281 131.320312 C 122.230469 135.800781 119.085938 139.867188 115.429688 143.523438 C 111.773438 147.179688 107.683594 150.324219 103.164062 152.957031 C 98.644531 155.589844 93.828125 157.617188 88.71875 159.03125 C 83.609375 160.445312 78.265625 161.171875 72.683594 161.210938 C 67.140625 161.210938 61.796875 160.503906 56.644531 159.089844 C 51.496094 157.675781 46.679688 155.648438 42.199219 153.015625 C 37.71875 150.382812 33.652344 147.238281 29.996094 143.582031 C 26.339844 139.925781 23.195312 135.839844 20.5625 131.320312 C 17.929688 126.800781 15.90625 122.003906 14.488281 116.933594 C 13.074219 111.863281 12.347656 106.496094 12.308594 100.835938 C 12.308594 95.292969 13.015625 89.949219 14.429688 84.800781 C 15.84375 79.652344 17.871094 74.835938 20.503906 70.355469 C 23.136719 65.875 26.28125 61.804688 29.9375 58.148438 C 33.59375 54.496094 37.679688 51.351562 42.199219 48.714844 C 46.722656 46.082031 51.515625 44.058594 56.585938 42.644531 C 61.65625 41.230469 67.023438 40.5 72.683594 40.460938 Z M 72.683594 153.664062 C 77.519531 153.664062 82.175781 153.035156 86.65625 151.777344 C 91.136719 150.519531 95.34375 148.75 99.273438 146.472656 C 103.203125 144.191406 106.78125 141.421875 110.003906 138.160156 C 113.226562 134.894531 115.980469 131.339844 118.257812 127.488281 C 120.539062 123.636719 122.328125 119.429688 123.625 114.871094 C 124.921875 110.308594 125.550781 105.632812 125.511719 100.835938 C 125.511719 96.003906 124.882812 91.34375 123.625 86.863281 C 122.367188 82.382812 120.597656 78.175781 118.316406 74.246094 C 116.039062 70.316406 113.265625 66.738281 110.003906 63.515625 C 106.742188 60.292969 103.183594 57.539062 99.332031 55.261719 C 95.480469 52.980469 91.273438 51.191406 86.714844 49.894531 C 82.15625 48.597656 77.476562 47.96875 72.683594 48.007812 C 67.847656 48.007812 63.191406 48.636719 58.710938 49.894531 C 54.226562 51.152344 50.023438 52.921875 46.09375 55.203125 C 42.160156 57.480469 38.585938 60.253906 35.359375 63.515625 C 32.136719 66.777344 29.386719 70.335938 27.105469 74.1875 C 24.828125 78.039062 23.039062 82.246094 21.742188 86.804688 C 20.445312 91.363281 19.816406 96.042969 19.855469 100.835938 C 19.855469 105.671875 20.484375 110.328125 21.742188 114.8125 C 23 119.292969 24.769531 123.496094 27.046875 127.429688 C 29.328125 131.359375 32.097656 134.9375 35.359375 138.160156 C 38.625 141.382812 42.179688 144.132812 46.03125 146.414062 C 49.886719 148.691406 54.089844 150.480469 58.652344 151.777344 C 63.210938 153.074219 67.886719 153.703125 72.683594 153.664062 Z M 72.683594 153.664062 "/></g><g clip-rule="nonzero" clip-path="url(#d38e25eeb5)"><path style=" stroke:none;fill-rule:nonzero;fill:#ddfcad;fill-opacity:1;" d="M 71.832031 36.71875 C 77.71875 36.71875 83.394531 37.46875 88.863281 38.972656 C 94.332031 40.472656 99.445312 42.625 104.207031 45.421875 C 108.964844 48.21875 113.285156 51.558594 117.167969 55.441406 C 121.050781 59.324219 124.390625 63.664062 127.1875 68.464844 C 129.984375 73.265625 132.136719 78.382812 133.640625 83.808594 C 135.140625 89.234375 135.914062 94.914062 135.957031 100.84375 C 135.957031 106.726562 135.203125 112.40625 133.703125 117.875 C 132.199219 123.34375 130.046875 128.457031 127.25 133.21875 C 124.453125 137.976562 121.113281 142.296875 117.230469 146.179688 C 113.347656 150.0625 109.007812 153.402344 104.207031 156.199219 C 99.40625 158.996094 94.292969 161.148438 88.863281 162.648438 C 83.4375 164.152344 77.757812 164.925781 71.832031 164.96875 C 65.945312 164.96875 60.265625 164.214844 54.796875 162.710938 C 49.328125 161.210938 44.214844 159.058594 39.457031 156.261719 C 34.695312 153.464844 30.375 150.125 26.492188 146.242188 C 22.609375 142.359375 19.269531 138.019531 16.472656 133.21875 C 13.675781 128.417969 11.527344 123.324219 10.023438 117.9375 C 8.519531 112.550781 7.746094 106.855469 7.707031 100.84375 C 7.707031 94.957031 8.457031 89.277344 9.960938 83.808594 C 11.464844 78.339844 13.613281 73.226562 16.410156 68.464844 C 19.207031 63.707031 22.546875 59.386719 26.429688 55.503906 C 30.3125 51.621094 34.652344 48.28125 39.457031 45.484375 C 44.257812 42.6875 49.347656 40.535156 54.734375 39.035156 C 60.121094 37.53125 65.820312 36.757812 71.832031 36.71875 Z M 71.832031 156.953125 C 76.964844 156.953125 81.914062 156.285156 86.671875 154.949219 C 91.429688 153.613281 95.898438 151.734375 100.074219 149.3125 C 104.25 146.890625 108.046875 143.945312 111.46875 140.480469 C 114.894531 137.015625 117.816406 133.238281 120.238281 129.148438 C 122.660156 125.054688 124.558594 120.589844 125.9375 115.746094 C 127.3125 110.902344 127.980469 105.933594 127.941406 100.84375 C 127.941406 95.707031 127.273438 90.761719 125.9375 86 C 124.601562 81.242188 122.722656 76.773438 120.300781 72.597656 C 117.878906 68.425781 114.9375 64.625 111.46875 61.203125 C 108.003906 57.777344 104.226562 54.855469 100.136719 52.433594 C 96.042969 50.015625 91.578125 48.113281 86.734375 46.738281 C 81.890625 45.359375 76.925781 44.691406 71.832031 44.734375 C 66.695312 44.734375 61.75 45.402344 56.988281 46.738281 C 52.230469 48.074219 47.761719 49.949219 43.589844 52.371094 C 39.414062 54.792969 35.613281 57.738281 32.191406 61.203125 C 28.769531 64.667969 25.84375 68.445312 23.425781 72.535156 C 21.003906 76.628906 19.101562 81.09375 17.726562 85.9375 C 16.347656 90.78125 15.679688 95.75 15.722656 100.84375 C 15.722656 105.976562 16.390625 110.925781 17.726562 115.683594 C 19.0625 120.441406 20.941406 124.910156 23.359375 129.085938 C 25.78125 133.257812 28.726562 137.058594 32.191406 140.480469 C 35.65625 143.90625 39.433594 146.828125 43.527344 149.25 C 47.617188 151.671875 52.082031 153.570312 56.925781 154.949219 C 61.769531 156.324219 66.738281 156.992188 71.832031 156.953125 Z M 71.832031 156.953125 "/></g><g clip-rule="nonzero" clip-path="url(#ac2cfead15)"><path style=" stroke:none;fill-rule:evenodd;fill:#9b91d0;fill-opacity:1;" d="M 41.421875 98.957031 C 31.816406 119.921875 2.546875 105.109375 5.820312 84.332031 C 9.265625 62.449219 48.402344 73.605469 41.421875 98.957031 "/></g><g clip-rule="nonzero" clip-path="url(#05236ed969)"><path style=" stroke:none;fill-rule:evenodd;fill:#9b91d0;fill-opacity:1;" d="M 120.882812 72.890625 C 127.199219 71.667969 135.097656 73.914062 138.046875 79.246094 C 146.179688 93.964844 131.1875 111.953125 116.429688 110.394531 C 108.328125 109.546875 103.644531 102.644531 103.082031 96.414062 C 101.875 83.058594 111.40625 74.726562 120.882812 72.890625 "/></g><g clip-rule="nonzero" clip-path="url(#5a22a2cc6f)"><path style=" stroke:none;fill-rule:evenodd;fill:#9b91d0;fill-opacity:1;" d="M 66.210938 92.597656 C 88.484375 88.753906 108.933594 104.804688 104.355469 132.011719 C 103.40625 137.640625 98.558594 145.601562 91.636719 145.996094 C 86.054688 146.316406 79.523438 140.878906 72.570312 140.910156 C 63.933594 140.953125 57.128906 148.609375 49.046875 144.726562 C 42.257812 141.460938 39.515625 128.265625 40.785156 118.664062 C 42.609375 104.820312 52.789062 94.910156 66.210938 92.597656 "/></g><g clip-rule="nonzero" clip-path="url(#2d0d8b83f8)"><path style=" stroke:none;fill-rule:evenodd;fill:#7a5980;fill-opacity:1;" d="M 56.296875 48.632812 C 79.191406 45.421875 81.039062 86.417969 59.859375 85.425781 C 42.828125 84.628906 36.402344 51.417969 56.296875 48.632812 "/></g><path style=" stroke:none;fill-rule:evenodd;fill:#7a5980;fill-opacity:1;" d="M 47.992188 97.890625 C 39.023438 117.460938 11.699219 103.632812 14.757812 84.238281 C 17.972656 63.808594 54.511719 74.222656 47.992188 97.890625 "/><g clip-rule="nonzero" clip-path="url(#120a694241)"><path style=" stroke:none;fill-rule:evenodd;fill:#7a5980;fill-opacity:1;" d="M 71.136719 91.953125 C 91.929688 88.367188 111.019531 103.351562 106.746094 128.746094 C 105.859375 134.003906 101.332031 141.4375 94.875 141.804688 C 89.660156 142.101562 83.5625 137.027344 77.070312 137.058594 C 69.011719 137.097656 62.65625 144.242188 55.109375 140.621094 C 48.773438 137.570312 46.210938 125.25 47.398438 116.289062 C 49.101562 103.363281 58.605469 94.113281 71.136719 91.953125 "/></g><g clip-rule="nonzero" clip-path="url(#5bda64cce7)"><path style=" stroke:none;fill-rule:evenodd;fill:#7a5980;fill-opacity:1;" d="M 55.359375 53.078125 C 75.449219 50.261719 77.070312 86.238281 58.480469 85.367188 C 43.539062 84.667969 37.898438 55.527344 55.359375 53.078125 "/></g><g clip-rule="nonzero" clip-path="url(#67ed73e43b)"><path style=" stroke:none;fill-rule:evenodd;fill:#7a5980;fill-opacity:1;" d="M 48.066406 96.304688 C 40.199219 113.480469 16.222656 101.347656 18.902344 84.328125 C 21.726562 66.398438 53.789062 75.539062 48.066406 96.304688 "/></g><g clip-rule="nonzero" clip-path="url(#5e3f7bfa18)"><path style=" stroke:none;fill-rule:evenodd;fill:#7a5980;fill-opacity:1;" d="M 91.011719 48.410156 C 119.167969 42.265625 115.878906 92.28125 89.6875 89.5 C 68.953125 87.296875 72.996094 52.34375 91.011719 48.410156 "/></g><g clip-rule="nonzero" clip-path="url(#73fca5bbb3)"><path style=" stroke:none;fill-rule:evenodd;fill:#7a5980;fill-opacity:1;" d="M 123.488281 76.246094 C 130.074219 74.96875 138.304688 77.3125 141.378906 82.871094 C 149.859375 98.214844 134.230469 116.96875 118.847656 115.34375 C 110.398438 114.457031 105.515625 107.265625 104.929688 100.765625 C 103.671875 86.847656 113.605469 78.15625 123.488281 76.246094 "/></g><g clip-rule="nonzero" clip-path="url(#0592d26ee4)"><path style=" stroke:none;fill-rule:evenodd;fill:#7a5980;fill-opacity:1;" d="M 88.902344 56.898438 C 112.269531 51.796875 109.539062 93.304688 87.800781 90.996094 C 70.597656 89.167969 73.949219 60.160156 88.902344 56.898438 "/></g><g clip-rule="nonzero" clip-path="url(#20a96d0c3c)"><path style=" stroke:none;fill-rule:evenodd;fill:#7a5980;fill-opacity:1;" d="M 115.851562 79.996094 C 121.320312 78.9375 128.152344 80.878906 130.703125 85.496094 C 137.738281 98.230469 124.769531 113.792969 112 112.445312 C 104.988281 111.707031 100.941406 105.738281 100.453125 100.347656 C 99.410156 88.792969 107.652344 81.582031 115.851562 79.996094 "/></g><g clip-rule="nonzero" clip-path="url(#cded55e0b1)"><path style=" stroke:none;fill-rule:evenodd;fill:#7a5980;fill-opacity:1;" d="M 68.550781 97.046875 C 87.824219 93.722656 105.515625 107.609375 101.554688 131.144531 C 100.730469 136.015625 96.539062 142.90625 90.550781 143.246094 C 85.71875 143.519531 80.070312 138.816406 74.054688 138.84375 C 66.582031 138.882812 60.695312 145.503906 53.699219 142.144531 C 47.828125 139.320312 45.453125 127.902344 46.554688 119.597656 C 48.132812 107.621094 56.9375 99.046875 68.550781 97.046875 "/></g><g clip-rule="nonzero" clip-path="url(#e28a4d67f8)"><g clip-rule="nonzero" clip-path="url(#a4b3d750bc)"><path style=" stroke:none;fill-rule:nonzero;fill:#ff8a3d;fill-opacity:1;" d="M 108.613281 141.882812 L 129.734375 141.882812 L 129.734375 163 L 108.613281 163 Z M 108.613281 141.882812 "/></g></g><g clip-rule="nonzero" clip-path="url(#7640f092ad)"><g clip-rule="nonzero" clip-path="url(#89f2d2cfa9)"><g clip-rule="nonzero" clip-path="url(#67a61b4725)"><g clip-rule="nonzero" clip-path="url(#5a391fae63)"><path style=" stroke:none;fill-rule:nonzero;fill:#16e8f5;fill-opacity:1;" d="M 108.953125 137.703125 C 111.460938 135.734375 115.085938 136.15625 117.0625 138.652344 C 119.039062 141.148438 118.617188 144.773438 116.128906 146.765625 L 118.128906 149.289062 C 122.015625 146.191406 122.671875 140.539062 119.59375 136.648438 C 116.515625 132.757812 110.859375 132.105469 106.953125 135.179688 L 108.953125 137.703125 "/></g></g></g></g></g></svg>
